<?xml version="1.0" encoding="utf-8"?>
<!-- Generator: Adobe Illustrator 19.2.1, SVG Export Plug-In . SVG Version: 6.00 Build 0)  -->
<svg version="1.1" id="mini-map" xmlns="http://www.w3.org/2000/svg" xmlns:xlink="http://www.w3.org/1999/xlink" x="0px" y="0px"
	 viewBox="638.8 -565.8 1890 1923" style="enable-background:new 638.8 -565.8 1890 1923;" xml:space="preserve">
<style type="text/css">
	
</style>
<g id="basemap">
	<path class="st0" d="M2135.8,1287.5l-9.8-31.6l42.5-206.2l12.2-131.7l-41.6-72l1-78l-4.2-92.8l-10.8-84.3l9.6-109.6l-0.5-96.1
		l51.5-18.3l68.4-78.4l98.6-67.3l128.7-134.1l47.5-36.1v-64l-1.7,1.4l-56,22.5l-23.3-20.8l42.7-48.4l38.3-75.5v-0.5l-28.8-5.8
		l-34.5,11.1l32.3-110.6l31-38.3v-121.9l-54.6,64.6l-72.3,154.8l-10.7,119.9l-147.6,168.4l-47.1,122.7l-176.8,174.9l2,31.3
		l-59.5,172.6l10.4,59.6l8.7,55.7l-30.4,72.9l-138.1,51.8L1753,987.8l-162.4,115.7l-131.1,80.8l-103.1,15l-174.9-44.1l-109.3-152
		l-149.4-23.3l-196.3-140l-87.6-32v357.5l37.6,28.9l51.6-47.9l69.4,9.6l9.2-20.7l-19.8-3.7l-18.3-18.9l261.1,15.6l77.6,73.4
		l105.5,106.1l106.4,7.2l191,9.4l63.8,30.2l4.2,2.6h493.9l7.6-10.3L2135.8,1287.5z M1561.9,1157.1c0.9-0.3,26-8,26-8l33.5,0.7
		l5.2,7.3l10.2,1.8l-1.2,5.9l-21.1,0.4l-22.8-1.6l-4.2,2.7l-26.6-5.4L1561.9,1157.1z M1627,1193.6c0,0-7.4,9-8,9.2
		c-0.6,0.1-19.9,5.4-19.9,5.4l-19.4-5.8l-12.6-0.6l-19.7-5.2l-6-26.5l11.2-5.2l22.3,6.6l25.2,2.9l22.9-4.3l18.2,4.5l0.8,15.8
		L1627,1193.6z M1912.7,921l-68.3,94c0,0-34.8-11.9-34.3-17.5c0.5-5.6,6.3-63.7,6.3-63.7l-9.2-12.6l25.4-60.3l121-47.8l26.3,64.4
		L1912.7,921z M2024.7,554.7l12.6-129.4c0,0,30.4-59.3,33.1-61.2c2.7-2,19.2-8.1,19.2-8.1l4.6-1l1.4,23.7l-11.9,5.2l-5.2,24.8
		l12.6,35l-18.4,74.9l-34.1,52.1L2024.7,554.7z M2051.2,616.6l5.3-38.5l31.7-79l11.5-45l9.6,3l-0.4,23.3l-4.9,85.9l6.4,50.6
		c0,0-8.9,67.4-8.7,67.5c0.2,0.1-30.2-23.4-30.2-23.4L2051.2,616.6z"/>
	<polygon class="st0" points="897.4,41.6 1003.4,10 1111.5,-46.4 1175,-33.6 1266.4,-39.1 1395,-145.2 1475.8,-310.3 1505.8,-315.9 
		1608.5,-455.8 1692,-565.8 1632,-565.8 1597,-493.2 1385.6,-264.7 1350,-175 1282.5,-105.4 1198.8,-81.8 1142.3,-94.4 
		1089.6,-71.1 1026,-28.6 975.7,-30.6 919,4.9 858.1,1.3 793.5,42 783.4,48.9 766.5,76.1 749.4,70.9 671,111.6 638.8,99.7 
		638.8,152 746.4,148 	"/>
	<polygon class="st1" points="2465.6,-129 2500.1,-140.1 2528.8,-134.3 2528.8,-277.9 2497.9,-239.6 	"/>
	<polygon class="st1" points="2447.9,-9.9 2471.2,10.9 2527.2,-11.6 2528.8,-13 2528.8,-133.8 2490.6,-58.3 	"/>
	<polygon class="st1" points="2528.8,51 2481.4,87.1 2352.7,221.2 2254.1,288.5 2185.7,366.9 2134.2,385.2 2134.7,481.3 
		2125.1,590.9 2135.9,675.2 2140.1,768 2139.1,846 2180.7,918 2168.5,1049.7 2126,1255.9 2135.8,1287.5 2079.7,1346.9 
		2072.1,1357.2 2528.8,1357.2 	"/>
	<polygon class="st1" points="1510.2,1324.4 1319.2,1315 1212.8,1307.8 1107.3,1201.7 1029.7,1128.3 768.6,1112.7 786.9,1131.6 
		806.7,1135.3 797.5,1156 728.1,1146.4 676.5,1194.3 638.8,1165.4 638.8,1357.2 1578.2,1357.2 1574,1354.6 	"/>
	<polygon class="st1" points="749.4,70.9 766.5,76.1 783.4,48.9 793.5,42 858.1,1.3 919,4.9 975.7,-30.6 1026,-28.6 1089.6,-71.1 
		1142.3,-94.4 1198.8,-81.8 1282.5,-105.4 1350,-175 1385.6,-264.7 1597,-493.2 1632,-565.8 638.8,-565.8 638.8,99.7 671,111.6 	"/>
	<polygon class="st1" points="922.8,979.9 1072.2,1003.2 1181.5,1155.2 1356.4,1199.3 1459.5,1184.3 1590.6,1103.5 1753,987.8 
		1812.8,849.4 1950.9,797.6 1981.3,724.7 1972.6,669 1962.2,609.4 2021.7,436.8 2019.7,405.5 2196.5,230.6 2243.6,107.9 
		2391.2,-60.5 2401.9,-180.4 2474.2,-335.2 2528.8,-399.8 2528.8,-565.8 1692,-565.8 1608.5,-455.8 1505.8,-315.9 1475.8,-310.3 
		1395,-145.2 1266.4,-39.1 1175,-33.6 1111.5,-46.4 1003.4,10 897.4,41.6 746.4,148 638.8,152 638.8,807.9 726.5,839.9 	"/>
	<path class="st1" d="M1832.6,860.9l-25.4,60.3l9.2,12.6c0,0-5.8,58.1-6.3,63.7c-0.5,5.6,34.3,17.5,34.3,17.5l68.3-94l67.2-43.5
		l-26.3-64.4L1832.6,860.9z"/>
	<path class="st1" d="M2091.1,443.7l-12.6-35l5.2-24.8l11.9-5.2l-1.4-23.7l-4.6,1c0,0-16.5,6.1-19.2,8.1
		c-2.7,1.9-33.1,61.2-33.1,61.2l-12.6,129.4l13.9,16l34.1-52.1L2091.1,443.7z"/>
	<path class="st1" d="M2110.4,616.9l-6.4-50.6l4.9-85.9l0.4-23.3l-9.6-3l-11.5,45l-31.7,79l-5.3,38.5l20.3,44.4
		c0,0,30.4,23.5,30.2,23.4C2101.5,684.3,2110.4,616.9,2110.4,616.9z"/>
	<path class="st1" d="M1623,1170.1l-22.9,4.3l-25.2-2.9l-22.3-6.6l-11.2,5.2l6,26.5l19.7,5.2l12.6,0.6l19.4,5.8
		c0,0,19.3-5.3,19.9-5.4c0.6-0.2,8-9.2,8-9.2l15-3.2l-0.8-15.8L1623,1170.1z"/>
	<path class="st1" d="M1591.7,1163.6l22.8,1.6l21.1-0.4l1.2-5.9l-10.2-1.8l-5.2-7.3l-33.5-0.7c0,0-25.1,7.7-26,8l-1,3.8l26.6,5.4
		L1591.7,1163.6z"/>
</g>
<g id="lines">
	<path id="green-line" class="st2" d="M1443.5,1040.5l99.5-99.3l49.9,49.9l99.4-99.4l-149.2-149.1l496.8-496.9l-49.7-49.8L2139,47.1
		l-49.6-49.7l198.5-198.5"/>
	<path id="orange-line" class="st3" d="M1001-201.3h293.4l645.9,645.9L1543,841.8l-495.5-495.5"/>
	<path id="blue-line" class="st4" d="M1344.3,643.1l148.6-148.7l0.1-196.6l0.1-100.7l249-249.4"/>
	<path id="yellow-line" class="st5" d="M2181.8,428.1h-123l-33.5-33.5h-135.2"/>
</g>
<g id="multi">
	<g id="talon">
		<circle class="st6" cx="1592.9" cy="97.1" r="10.5"/>
		<text transform="matrix(1 0 0 1 702.1392 522.3002)" class="st7 st8 st9">Jean-Talon</text>
	</g>
	<g id="berri_1_">
		<circle class="st6" cx="1890.7" cy="395" r="10.5"/>
		<text transform="matrix(1 0 0 1 702.1392 363.9002)" class="st7 st8 st9">Berri-UQAM</text>
	</g>
	<g id="snowdon">
		<circle class="st6" cx="1344.3" cy="643.1" r="10.5"/>
		<text transform="matrix(1 0 0 1 702.1392 407.1002)" class="st7 st8 st9">Snowdon</text>
	</g>
	<g id="lionel">
		<circle class="st10" cx="1592.8" cy="792.4" r="10.5"/>
		<text transform="matrix(1 0 0 1 702.1392 -370.4998)" class="st7 st8 st9">Lionel-Groulx</text>
	</g>
</g>
<g id="green-line-stops">
	<g id="beaudry">
		<circle class="st1" cx="1954.4" cy="331.2" r="8.8"/>
		<text transform="matrix(1 0 0 1 702.1392 -255.2998)" class="st7 st8 st9">Beaudry</text>
	</g>
	<g id="honore">
		<circle class="st1" cx="2288" cy="-201.2" r="10.5"/>
		<text transform="matrix(1 0 0 1 702.1392 -96.8998)" class="st7 st8 st9">Honoré-Beaugrand</text>
	</g>
	<g id="angrignon">
		<circle class="st1" cx="1443.7" cy="1040.4" r="10.5"/>
		<text transform="matrix(1 0 0 1 702.1392 -471.2998)" class="st7 st8 st9">Angrignon</text>
	</g>
	<g id="laurent">
		<circle class="st1" cx="1841.4" cy="444.2" r="8.8"/>
		<text transform="matrix(1 0 0 1 702.1392 -284.0998)" class="st7 st8 st9">Saint-Laurent</text>
	</g>
	<g id="arts">
		<circle class="st1" cx="1791.5" cy="494.2" r="8.8"/>
		<text transform="matrix(1 0 0 1 702.1392 -298.4998)" class="st7 st8 st9">Place des Arts</text>
	</g>
	<g id="mcgill">
		<circle class="st1" cx="1741.9" cy="543.7" r="8.8"/>
		<text transform="matrix(1 0 0 1 702.1392 -312.8998)" class="st7 st8 st9">McGill</text>
	</g>
	<g id="peel">
		<circle class="st1" cx="1692.3" cy="593.3" r="8.8"/>
		<text transform="matrix(1 0 0 1 702.1392 -327.2998)" class="st7 st8 st9">Peel</text>
	</g>
	<g id="guy">
		<circle class="st1" cx="1642.6" cy="643.3" r="8.8"/>
		<text transform="matrix(1 0 0 1 702.1392 -341.6998)" class="st7 st8 st9">Guy-Concordia</text>
	</g>
	<g id="atwater">
		<circle class="st1" cx="1592.8" cy="693.1" r="8.8"/>
		<text transform="matrix(1 0 0 1 702.1392 -356.0998)" class="st7 st8 st9">Atwater</text>
	</g>
	<g id="charlevoix">
		<circle class="st1" cx="1642.6" cy="842.2" r="8.8"/>
		<text transform="matrix(1 0 0 1 702.1392 -384.8998)" class="st7 st8 st9">Charlevoix</text>
	</g>
	<g id="lasalle">
		<circle class="st1" cx="1690.6" cy="891.6" r="8.8"/>
		<text transform="matrix(1 0 0 1 702.1392 -399.2998)" class="st7 st8 st9">LaSalle</text>
	</g>
	<g id="eglise">
		<circle class="st1" cx="1642.3" cy="941.3" r="8.8"/>
		<text transform="matrix(1 0 0 1 702.1392 -413.6998)" class="st7 st8 st9">De l&apos;Église</text>
	</g>
	<g id="verdun">
		<circle class="st1" cx="1592.9" cy="989.1" r="8.8"/>
		<text transform="matrix(1 0 0 1 702.1392 -428.0998)" class="st7 st8 st9">Verdun</text>
	</g>
	<g id="jolicoeur">
		<circle class="st1" cx="1542.9" cy="943.9" r="8.8"/>
		<text transform="matrix(1 0 0 1 702.1392 -442.4998)" class="st7 st8 st9">Jolicoeur</text>
	</g>
	<g id="monk">
		<circle class="st1" cx="1493.2" cy="991" r="8.8"/>
		<text transform="matrix(1 0 0 1 702.1392 -456.8998)" class="st7 st8 st9">Monk</text>
	</g>
	<g id="radisson">
		<circle class="st1" cx="2238.6" cy="-151.8" r="8.8"/>
		<text transform="matrix(1 0 0 1 702.1392 -111.2998)" class="st7 st8 st9">Radisson</text>
	</g>
	<g id="langelier">
		<circle class="st1" cx="2188.4" cy="-101.8" r="8.8"/>
		<text transform="matrix(1 0 0 1 702.1392 -125.6998)" class="st7 st8 st9">Langelier</text>
	</g>
	<g id="cadillac">
		<circle class="st1" cx="2138.7" cy="-52.1" r="8.8"/>
		<text transform="matrix(1 0 0 1 702.1392 -140.0998)" class="st7 st8 st9">Cadillac</text>
	</g>
	<g id="assomption">
		<circle class="st1" cx="2092.4" cy="-2.6" r="8.8"/>
		<text transform="matrix(1 0 0 1 702.1392 -154.4998)" class="st7 st8 st9">Assomption</text>
	</g>
	<g id="viau">
		<circle class="st1" cx="2136.4" cy="46.8" r="8.8"/>
		<text transform="matrix(1 0 0 1 702.1392 -168.8998)" class="st7 st8 st9">Viau</text>
	</g>
	<g id="pie">
		<circle class="st1" cx="2089.3" cy="97.1" r="8.8"/>
		<text transform="matrix(1 0 0 1 702.1392 -183.2998)" class="st7 st8 st9">Pie-IX</text>
	</g>
	<g id="joliette">
		<circle class="st1" cx="2039.8" cy="146.3" r="8.8"/>
		<text transform="matrix(1 0 0 1 702.1392 -197.6998)" class="st7 st8 st9">Joliette</text>
	</g>
	<g id="prefontaine">
		<circle class="st1" cx="1993.4" cy="195.9" r="8.8"/>
		<text transform="matrix(1 0 0 1 702.1392 -212.0998)" class="st7 st8 st9">Préfontaine</text>
	</g>
	<g id="frontenac">
		<circle class="st1" cx="2036.7" cy="245.7" r="8.8"/>
		<text transform="matrix(1 0 0 1 702.1392 -226.4998)" class="st7 st8 st9">Frontenac</text>
	</g>
	<g id="papineau">
		<circle class="st1" cx="1998.2" cy="287.5" r="8.8"/>
		<text transform="matrix(1 0 0 1 702.1392 -240.8998)" class="st7 st8 st9">Papineau</text>
	</g>
</g>
<g id="orange-line-stops">
	<g id="montmorency">
		<circle class="st1" cx="1001" cy="-201.4" r="10.5"/>
		<text transform="matrix(1 0 0 1 702.1392 349.5002)" class="st7 st8 st9">Montmorency</text>
	</g>
	<g id="mars">
		<circle class="st1" cx="1890.5" cy="494.3" r="8.8"/>
		<text transform="matrix(1 0 0 1 702.1392 147.9002)" class="st7 st8 st9">Champ-de-Mars</text>
	</g>
	<g id="jarry">
		<circle class="st1" cx="1543" cy="47.1" r="8.8"/>
		<text transform="matrix(1 0 0 1 702.1392 263.1002)" class="st7 st8 st9">Jarry</text>
	</g>
	<g id="cremazie">
		<circle class="st1" cx="1493.3" cy="-2.6" r="8.8"/>
		<text transform="matrix(1 0 0 1 702.1392 277.5002)" class="st7 st8 st9">Crémazie</text>
	</g>
	<g id="sauve">
		<circle class="st1" cx="1443.7" cy="-52.3" r="8.8"/>
		<text transform="matrix(1 0 0 1 702.1392 291.9002)" class="st7 st8 st9">Sauvé</text>
	</g>
	<g id="henri">
		<circle class="st1" cx="1394.3" cy="-101.6" r="8.8"/>
		<text transform="matrix(1 0 0 1 702.1392 306.3002)" class="st7 st8 st9">Henri-Bourassa</text>
	</g>
	<g id="concorde">
		<circle class="st1" cx="1294.5" cy="-201.3" r="8.8"/>
		<text transform="matrix(1 0 0 1 702.1392 335.1002)" class="st7 st8 st9">De la Concorde</text>
	</g>
	<g id="cartier">
		<circle class="st1" cx="1145.9" cy="-201.3" r="8.8"/>
		<text transform="matrix(1 0 0 1 702.1392 320.7003)" class="st7 st8 st9">Cartier</text>
	</g>
	<g id="armes">
		<circle class="st1" cx="1841.3" cy="543.7" r="8.8"/>
		<text transform="matrix(1 0 0 1 702.1392 133.5002)" class="st7 st8 st9">Place-d&apos;Armes</text>
	</g>
	<g id="square">
		<circle class="st1" cx="1791.6" cy="593.4" r="8.8"/>
		<text transform="matrix(1 0 0 1 702.1392 119.1002)" class="st7 st8 st9">Square-Victoria</text>
	</g>
	<g id="bonaventure">
		<circle class="st1" cx="1742" cy="643" r="8.8"/>
		<text transform="matrix(1 0 0 1 702.1392 104.7002)" class="st7 st8 st9">Bonaventure</text>
	</g>
	<g id="lucien">
		<circle class="st1" cx="1691.8" cy="693.2" r="8.8"/>
		<text transform="matrix(1 0 0 1 702.1392 90.3002)" class="st7 st8 st9">Lucien-L&apos;Allier</text>
	</g>
	<g id="vanier">
		<circle class="st1" cx="1642.3" cy="742.7" r="8.8"/>
		<text transform="matrix(1 0 0 1 702.1392 75.9002)" class="st7 st8 st9">Georges-Vanier</text>
	</g>
	<g id="vertu">
		<circle class="st1" cx="1047.1" cy="345.7" r="10.5"/>
		<text transform="matrix(1 0 0 1 702.1392 -82.4998)" class="st7 st8 st9">Côte-Vertu</text>
	</g>
	<g id="sthenri">
		<circle class="st1" cx="1493.6" cy="792.4" r="8.8"/>
		<text transform="matrix(1 0 0 1 702.1392 47.1002)" class="st7 st8 st9">Place-Saint-Henri</text>
	</g>
	<g id="vendome">
		<circle class="st1" cx="1443.7" cy="742.7" r="8.8"/>
		<text transform="matrix(1 0 0 1 702.1392 32.7002)" class="st7 st8 st9">Vendôme</text>
	</g>
	<g id="maria">
		<circle class="st1" cx="1394" cy="692.9" r="8.8"/>
		<text transform="matrix(1 0 0 1 702.1392 18.3002)" class="st7 st8 st9">Villa-Maria</text>
	</g>
	<g id="stcath">
		<circle class="st1" cx="1294.6" cy="593.4" r="8.8"/>
		<text transform="matrix(1 0 0 1 702.1392 -10.4998)" class="st7 st8 st9">Côte-Sainte-Catherine</text>
	</g>
	<g id="plamondon">
		<circle class="st1" cx="1245.1" cy="543.9" r="8.8"/>
		<text transform="matrix(1 0 0 1 702.1392 -24.8998)" class="st7 st8 st9">Plamondon</text>
	</g>
	<g id="namur">
		<circle class="st1" cx="1195.1" cy="494" r="8.8"/>
		<text transform="matrix(1 0 0 1 702.1392 -39.2998)" class="st7 st8 st9">Namur</text>
	</g>
	<g id="savane">
		<circle class="st1" cx="1145.7" cy="444.6" r="8.8"/>
		<text transform="matrix(1 0 0 1 702.1392 -53.6998)" class="st7 st8 st9">De la Savane</text>
	</g>
	<g id="college">
		<circle class="st1" cx="1095.8" cy="394.7" r="8.8"/>
		<text transform="matrix(1 0 0 1 702.1392 -68.0998)" class="st7 st8 st9">Du Collège</text>
	</g>
	<g id="sherbrooke">
		<circle class="st1" cx="1824.1" cy="328.5" r="8.8"/>
		<text transform="matrix(1 0 0 1 702.1392 176.7002)" class="st7 st8 st9">Sherbrooke</text>
	</g>
	<g id="royal">
		<circle class="st1" cx="1778.8" cy="282.9" r="8.8"/>
		<text transform="matrix(1 0 0 1 702.1392 191.1002)" class="st7 st8 st9">Mont-Royal</text>
	</g>
	<g id="laurier">
		<circle class="st1" cx="1733.3" cy="237.3" r="8.8"/>
		<text transform="matrix(1 0 0 1 702.1392 205.5002)" class="st7 st8 st9">Laurier</text>
	</g>
	<g id="rosemont">
		<circle class="st1" cx="1687.7" cy="191.8" r="8.8"/>
		<text transform="matrix(1 0 0 1 702.1392 219.9002)" class="st7 st8 st9">Rosemont</text>
	</g>
	<g id="beaubien">
		<circle class="st1" cx="1642.2" cy="146.3" r="8.8"/>
		<text transform="matrix(1 0 0 1 702.1392 234.3002)" class="st7 st8 st9">Beaubien</text>
	</g>
</g>
<g id="blue-line-stops">
	<g id="michel">
		<circle class="st1" cx="1742" cy="-52.4" r="8.8"/>
		<text transform="matrix(1 0 0 1 702.1392 565.5002)" class="st7 st8 st9">Saint-Michel</text>
	</g>
	<g id="fabre">
		<circle class="st1" cx="1642.2" cy="46.9" r="8.8"/>
		<text transform="matrix(1 0 0 1 702.1392 536.7002)" class="st7 st8 st9">Fabre</text>
	</g>
	<g id="castelneau">
		<circle class="st1" cx="1543.4" cy="146.3" r="8.8"/>
		<text transform="matrix(1 0 0 1 702.1392 507.9001)" class="st7 st8 st9">De Castelnau</text>
	</g>
	<g id="parc">
		<circle class="st1" cx="1497.6" cy="192.8" r="8.8"/>
		<text transform="matrix(1 0 0 1 702.1392 493.5002)" class="st7 st8 st9">Parc</text>
	</g>
	<g id="cote">
		<circle class="st1" cx="1394" cy="593.9" r="8.8"/>
		<text transform="matrix(1 0 0 1 702.1392 421.5002)" class="st7 st8 st9">Côte-des-Neiges</text>
	</g>
	<g id="universite">
		<circle class="st1" cx="1443.6" cy="543.4" r="8.8"/>
		<text transform="matrix(1 0 0 1 702.1392 435.9001)" class="st7 st8 st9">Université-de-Montréal</text>
	</g>
	<g id="edouard">
		<circle class="st1" cx="1492" cy="494.1" r="8.8"/>
		<text transform="matrix(1 0 0 1 702.1392 450.3002)" class="st7 st8 st9">Édouard-Montpetit</text>
	</g>
	<g id="outremont">
		<circle class="st1" cx="1493.3" cy="395" r="8.8"/>
		<text transform="matrix(1 0 0 1 702.1392 464.7002)" class="st7 st8 st9">Outremont</text>
	</g>
	<g id="acadie">
		<circle class="st1" cx="1493.3" cy="295.6" r="8.8"/>
		<text transform="matrix(1 0 0 1 702.1392 479.1002)" class="st7 st8 st9">Acadie</text>
	</g>
	<g id="iberville">
		<circle class="st1" cx="1692.3" cy="-2.6" r="8.8"/>
		<text transform="matrix(1 0 0 1 702.1392 551.1002)" class="st7 st8 st9">D&apos;Iberville</text>
	</g>
</g>
<g id="yellow-line-stops">
	<g id="longueil">
		<circle class="st1" cx="2182.5" cy="428.5" r="10.5"/>
		<text transform="matrix(1 0 0 1 702.1392 392.7002)" class="st7 st8 st9">Longueuil–Université-de-Sherbrooke</text>
	</g>
	<g id="drapeau">
		<circle class="st1" cx="2060.2" cy="427.5" r="8.8"/>
		<text transform="matrix(1 0 0 1 702.1392 378.3002)" class="st7 st8 st9">Jean-Drapeau</text>
	</g>
</g>
</svg>
